<?xml version="1.0" standalone="no"?>
<!DOCTYPE svg PUBLIC "-//W3C//DTD SVG 20010904//EN"
 "http://www.w3.org/TR/2001/REC-SVG-20010904/DTD/svg10.dtd">
<svg version="1.0" xmlns="http://www.w3.org/2000/svg"
 width="455.000000pt" height="455.000000pt" viewBox="0 0 455.000000 455.000000"
 preserveAspectRatio="xMidYMid meet">
<metadata>
Created by potrace 1.11, written by Peter Selinger 2001-2013
</metadata>
<g transform="translate(0.000000,455.000000) scale(0.100000,-0.100000)"
fill="#000000" stroke="none">
<path d="M2065 4534 c-22 -3 -94 -13 -160 -24 -893 -143 -1623 -814 -1839
-1689 -105 -423 -87 -847 55 -1272 37 -112 142 -334 206 -439 305 -493 784
-855 1331 -1006 233 -64 346 -78 617 -78 271 0 384 14 617 78 781 215 1398
849 1592 1635 105 423 87 847 -55 1272 -37 112 -142 334 -206 439 -305 493
-784 855 -1331 1006 -211 58 -340 75 -577 79 -115 2 -228 1 -250 -1z m-393
-1018 c72 -34 68 23 68 -1023 0 -1008 1 -994 -51 -1094 -42 -84 -158 -170
-295 -221 -54 -20 -79 -22 -274 -22 -218 -1 -236 1 -335 41 -70 29 -174 103
-210 150 -66 86 -78 136 -83 339 -4 155 -2 185 13 213 47 91 263 95 321 6 14
-22 19 -57 23 -179 5 -134 9 -155 29 -187 41 -67 60 -74 222 -77 135 -3 148
-2 189 20 31 16 51 36 65 63 21 39 21 56 26 970 5 958 5 952 44 984 51 43 176
51 248 17z m853 3 c16 -8 38 -27 49 -42 20 -28 21 -41 26 -539 l5 -511 466
545 c257 299 479 549 493 556 59 27 121 8 189 -57 50 -47 67 -80 67 -130 0
-37 -10 -52 -136 -198 -75 -87 -349 -406 -610 -709 l-473 -551 -3 -331 -3
-330 -25 -27 c-35 -39 -80 -55 -150 -55 -70 0 -115 16 -150 55 l-25 27 -3
1091 c-2 728 0 1104 7 1128 21 70 82 101 187 95 34 -2 74 -10 89 -17z m796
-1196 c28 -30 542 -772 596 -862 47 -79 43 -143 -15 -204 -53 -56 -128 -83
-177 -63 -43 18 -62 43 -380 505 -274 397 -279 406 -283 461 -5 64 9 98 56
143 64 61 154 70 203 20z"/>
</g>
</svg>
